# Blender v2.78 (sub 0) OBJ File: '6.blend'
# www.blender.org
mtllib Necktie_01.mtl
o Necktie_01_Cube.028
v -0.530210 8.850947 -0.184467
v -0.686341 9.803701 -0.202370
v -0.530210 8.850947 -0.598668
v -0.686341 9.803701 -0.580765
v 0.530210 8.850947 -0.184467
v 0.686341 9.803701 -0.202370
v 0.530210 8.850947 -0.598668
v 0.686341 9.803701 -0.580765
v -0.414633 8.850947 -0.506459
v -0.414633 8.850947 -0.262655
v 0.414633 8.850947 -0.506459
v 0.414633 8.850947 -0.262655
v -0.943313 1.109192 -0.506459
v -0.943313 1.109192 -0.262655
v 0.943313 1.109192 -0.506459
v 0.943313 1.109192 -0.262655
v -0.052177 0.120932 -0.506459
v -0.052177 0.120932 -0.262655
v 0.052177 0.120932 -0.506459
v 0.052177 0.120932 -0.262655
v 0.000000 8.633771 -0.598668
v 0.000000 9.740117 -0.580765
v 0.000000 8.633771 -0.184467
v 0.000000 9.740117 -0.202370
v 0.000000 8.633771 -0.506459
v 0.000000 8.633771 -0.262655
v 0.000000 1.109192 -0.506459
v 0.000000 1.109192 -0.262655
v 0.000000 0.120932 -0.506459
v 0.000000 0.120932 -0.262655
v -0.659981 9.441722 -0.125886
v -0.659981 9.441722 -0.589716
v 0.659981 9.441722 -0.589716
v 0.659981 9.441722 -0.125886
v 0.000000 9.458569 -0.041604
v 0.000000 9.458569 -0.589716
v 0.000000 9.712960 -3.446741
v -1.245440 9.712960 -2.930862
v -1.761318 9.883657 -1.685423
v -1.245440 9.712960 -0.669566
v -0.622891 9.163298 -0.487611
v 1.245440 9.712960 -0.669566
v 1.761318 9.883657 -1.685423
v 1.245440 9.712960 -2.930862
v -0.622891 9.163298 -0.278782
v -0.659981 9.441722 -0.249247
v -0.697071 9.720147 -0.287808
v -0.697071 9.720147 -0.478584
v -0.659981 9.441722 -0.483097
v 0.659981 9.441722 -0.483097
v 0.622891 9.163298 -0.487611
v 0.622891 9.163298 -0.278782
v 0.697071 9.720147 -0.478584
v 0.697071 9.720147 -0.287808
v 0.659981 9.441722 -0.249247
v 0.000000 9.579760 -3.446741
v -1.245440 9.579760 -2.930862
v -1.761318 9.750456 -1.685423
v -1.245440 9.579760 -0.669566
v 1.245440 9.579760 -0.669566
v 1.761318 9.750456 -1.685423
v 1.245440 9.579760 -2.930862
v 0.000000 9.273153 -3.446741
v -1.245440 9.273153 -2.930862
v -1.761318 9.443850 -1.685423
v -1.245440 9.273153 -0.669566
v 1.245440 9.273153 -0.669566
v 1.761318 9.443850 -1.685423
v 1.245440 9.273153 -2.930862
v -0.000000 9.712960 -3.549314
v -1.346812 9.712960 -2.991445
v -1.904680 9.883657 -1.644634
v -1.346812 9.712960 -0.579817
v 1.346812 9.712960 -0.579817
v 1.904680 9.883657 -1.644634
v 1.346812 9.712960 -2.991445
v -0.000000 9.576502 -3.549314
v -1.346812 9.576502 -2.991445
v -1.904680 9.747198 -1.644634
v -1.346812 9.576502 -0.579817
v 1.346812 9.576502 -0.579817
v 1.904680 9.747198 -1.644634
v 1.346812 9.576502 -2.991445
v -0.000000 9.273153 -3.549314
v -1.346812 9.273153 -2.991445
v -1.904680 9.443850 -1.644634
v -1.346812 9.273153 -0.579817
v 1.346812 9.273153 -0.579817
v 1.904680 9.443850 -1.644634
v 1.346812 9.273153 -2.991445
v 0.490158 7.744982 -0.262655
v 0.565684 6.639017 -0.262655
v 0.641210 5.533052 -0.262655
v 0.716736 4.427088 -0.262655
v 0.792261 3.321122 -0.262655
v 0.867787 2.215157 -0.262655
v 0.867787 2.215157 -0.506459
v 0.792261 3.321122 -0.506459
v 0.716736 4.427088 -0.506459
v 0.641210 5.533052 -0.506459
v 0.565684 6.639017 -0.506459
v 0.490158 7.744982 -0.506459
v -0.490158 7.744982 -0.506459
v -0.565684 6.639017 -0.506459
v -0.641210 5.533052 -0.506459
v -0.716736 4.427088 -0.506459
v -0.792261 3.321122 -0.506459
v -0.867787 2.215157 -0.506459
v -0.867787 2.215157 -0.262655
v -0.792261 3.321122 -0.262655
v -0.716736 4.427088 -0.262655
v -0.641210 5.533052 -0.262655
v -0.565684 6.639017 -0.262655
v -0.490158 7.744982 -0.262655
v 0.000000 7.649860 -0.506459
v 0.000000 6.559749 -0.506459
v 0.000000 5.469638 -0.506459
v 0.000000 4.379528 -0.506459
v 0.000000 3.289415 -0.506459
v 0.000000 2.199304 -0.506459
v 0.000000 7.649860 -0.262655
v 0.000000 6.559749 -0.262655
v 0.000000 5.469638 -0.262655
v 0.000000 4.379528 -0.262655
v 0.000000 3.289415 -0.262655
v 0.000000 2.199304 -0.262655
vn 0.9977 0.0681 0.0000
vn -0.9977 0.0681 0.0000
vn 0.0000 0.0000 1.0000
vn 0.0000 0.0000 -1.0000
vn 0.0000 -1.0000 0.0000
vn -0.9239 0.0000 0.3827
vn 0.9239 0.0000 0.3827
vn 0.3197 0.0392 -0.9467
vn 0.2965 0.0262 -0.9547
vn -0.3197 0.0392 -0.9467
vn -0.2965 0.0262 -0.9547
vn 0.9239 0.0000 -0.3827
vn -0.9239 0.0000 -0.3827
vn 0.4181 0.0469 0.9072
vn 0.4180 -0.0726 0.9055
vn -0.4181 0.0469 0.9072
vn -0.4180 -0.0726 0.9055
vn -0.0105 0.9999 -0.0038
vn 0.0102 0.9919 -0.1264
vn -0.0102 0.9919 -0.1264
vn 0.0105 0.9999 -0.0038
vn -0.1438 -0.9884 -0.0488
vn -0.0102 -0.9919 0.1264
vn 0.0102 -0.9919 0.1264
vn 0.1438 -0.9884 -0.0488
vn -0.9716 -0.1994 0.1275
vn -0.0010 0.0278 -0.9996
vn 0.9919 0.1274 0.0000
vn -0.0468 0.3438 0.9379
vn 0.0922 0.9957 0.0000
vn -0.3991 -0.8682 -0.2950
vn 0.4041 -0.8790 0.2532
vn 0.7427 -0.6697 0.0000
vn -0.7427 -0.6697 0.0000
vn -0.4041 -0.8790 0.2532
vn 0.3991 -0.8682 -0.2950
vn -0.0922 0.9957 0.0000
vn 0.0468 0.3438 0.9379
vn 0.0010 0.0278 -0.9996
vn 0.0022 0.0128 -0.9999
vn 0.0947 -0.1488 0.9843
vn -0.0947 -0.1488 0.9843
vn 0.9930 -0.0832 0.0843
vn -0.0022 0.0128 -0.9999
vn -0.9930 -0.0832 0.0843
vn -0.3827 0.0000 0.9239
vn 0.3827 0.0000 0.9239
vn 0.8916 0.0000 -0.4528
vn -0.9919 0.1274 0.0000
vn 0.9716 -0.1994 0.1275
vn -0.9913 -0.0963 -0.0895
vn 0.9715 -0.1842 -0.1493
vn -0.9715 -0.1842 -0.1493
vn -0.9587 -0.2845 0.0000
vn 0.9913 -0.0963 -0.0895
vn 0.9587 -0.2845 0.0000
vn -0.8916 0.0000 -0.4528
vn 0.3827 0.0000 -0.9239
vn -0.3827 0.0000 -0.9239
vn -0.8858 0.0000 0.4641
vn 0.8858 0.0000 0.4641
vn 0.0679 0.9895 0.1273
vn 0.0000 1.0000 0.0000
vn -0.0679 0.9895 0.1273
vn -0.0679 -0.9895 -0.1273
vn 0.0679 -0.9895 -0.1273
usemtl F44336
s off
f 97//1 96//1 16//1 15//1
f 109//2 108//2 13//2 14//2
f 126//3 109//3 14//3 28//3
f 120//4 97//4 15//4 27//4
f 29//5 19//5 20//5 30//5
f 17//5 29//5 30//5 18//5
f 108//4 120//4 27//4 13//4
f 96//3 126//3 28//3 16//3
f 43//6 44//6 62//6 61//6
f 38//7 39//7 58//7 57//7
f 57//7 58//7 65//7 64//7
f 61//6 62//6 69//6 68//6
f 49//8 59//8 40//8 48//8
f 41//9 66//9 59//9 49//9
f 53//10 42//10 60//10 50//10
f 50//11 60//11 67//11 51//11
f 75//12 82//12 83//12 76//12
f 71//13 78//13 79//13 72//13
f 78//13 85//13 86//13 79//13
f 82//12 89//12 90//12 83//12
f 54//14 55//14 81//14 74//14
f 55//15 52//15 88//15 81//15
f 46//16 47//16 73//16 80//16
f 45//17 46//17 80//17 87//17
f 47//18 48//18 40//18 73//18
f 38//19 71//19 72//19 39//19
f 43//20 75//20 76//20 44//20
f 54//21 74//21 42//21 53//21
f 45//22 87//22 66//22 41//22
f 64//23 65//23 86//23 85//23
f 68//24 69//24 90//24 89//24
f 52//25 51//25 67//25 88//25
f 12//3 26//3 121//3 91//3
f 92//3 122//3 123//3 93//3
f 94//3 124//3 125//3 95//3
f 9//4 25//4 115//4 103//4
f 104//4 116//4 117//4 105//4
f 106//4 118//4 119//4 107//4
f 25//4 11//4 102//4 115//4
f 116//4 101//4 100//4 117//4
f 118//4 99//4 98//4 119//4
f 26//3 10//3 114//3 121//3
f 122//3 113//3 112//3 123//3
f 124//3 111//3 110//3 125//3
f 10//2 9//2 103//2 114//2
f 113//2 104//2 105//2 112//2
f 111//2 106//2 107//2 110//2
f 11//1 12//1 91//1 102//1
f 101//1 92//1 93//1 100//1
f 99//1 94//1 95//1 98//1
usemtl 039BE5
f 1//26 31//26 46//26 45//26
f 36//27 22//27 8//27 33//27
f 8//28 6//28 54//28 53//28
f 35//29 24//29 2//29 31//29
f 7//5 5//5 12//5 11//5
f 22//30 4//30 2//30 24//30
f 23//31 1//31 10//31 26//31
f 21//32 7//32 11//32 25//32
f 1//5 3//5 9//5 10//5
f 28//3 14//3 18//3 30//3
f 27//4 15//4 19//4 29//4
f 15//33 16//33 20//33 19//33
f 14//34 13//34 17//34 18//34
f 13//4 27//4 29//4 17//4
f 16//3 28//3 30//3 20//3
f 3//35 21//35 25//35 9//35
f 5//36 23//36 26//36 12//36
f 8//37 22//37 24//37 6//37
f 34//38 6//38 24//38 35//38
f 32//39 4//39 22//39 36//39
f 3//40 32//40 36//40 21//40
f 5//41 34//41 35//41 23//41
f 23//42 35//42 31//42 1//42
f 6//43 34//43 55//43 54//43
f 21//44 36//44 33//44 7//44
f 31//45 2//45 47//45 46//45
f 44//46 37//46 56//46 62//46
f 37//47 38//47 57//47 56//47
f 39//48 40//48 59//48 58//48
f 2//49 4//49 48//49 47//49
f 34//50 5//50 52//50 55//50
f 4//51 32//51 49//51 48//51
f 7//52 33//52 50//52 51//52
f 32//53 3//53 41//53 49//53
f 3//54 1//54 45//54 41//54
f 33//55 8//55 53//55 50//55
f 5//56 7//56 51//56 52//56
f 42//57 43//57 61//57 60//57
f 62//46 56//46 63//46 69//46
f 60//57 61//57 68//57 67//57
f 56//47 57//47 64//47 63//47
f 58//48 59//48 66//48 65//48
f 76//58 83//58 77//58 70//58
f 70//59 77//59 78//59 71//59
f 72//60 79//60 80//60 73//60
f 74//61 81//61 82//61 75//61
f 83//58 90//58 84//58 77//58
f 81//61 88//61 89//61 82//61
f 77//59 84//59 85//59 78//59
f 79//60 86//60 87//60 80//60
f 39//62 72//62 73//62 40//62
f 37//63 70//63 71//63 38//63
f 44//63 76//63 70//63 37//63
f 42//64 74//64 75//64 43//64
f 65//65 66//65 87//65 86//65
f 63//5 64//5 85//5 84//5
f 69//5 63//5 84//5 90//5
f 67//66 68//66 89//66 88//66
f 91//3 121//3 122//3 92//3
f 93//3 123//3 124//3 94//3
f 95//3 125//3 126//3 96//3
f 103//4 115//4 116//4 104//4
f 105//4 117//4 118//4 106//4
f 107//4 119//4 120//4 108//4
f 115//4 102//4 101//4 116//4
f 117//4 100//4 99//4 118//4
f 119//4 98//4 97//4 120//4
f 121//3 114//3 113//3 122//3
f 123//3 112//3 111//3 124//3
f 125//3 110//3 109//3 126//3
f 114//2 103//2 104//2 113//2
f 112//2 105//2 106//2 111//2
f 110//2 107//2 108//2 109//2
f 102//1 91//1 92//1 101//1
f 100//1 93//1 94//1 99//1
f 98//1 95//1 96//1 97//1
